<!-- icon666.com - MILLIONS OF FREE VECTOR ICONS --><svg id="Layer_1" enable-background="new 0 0 512.038 512.038" viewBox="0 0 512.038 512.038" xmlns="http://www.w3.org/2000/svg"><g><path clip-rule="evenodd" d="m365.218 103.572-116.103-1.442c-4.651-.458-9.462 1.093-13.024 4.654l-221.37 221.337c-6.311 6.311-6.311 16.543 0 22.854l146.365 146.343c6.312 6.311 16.546 6.311 22.858 0l221.37-221.337c2.959-2.958 4.725-7.103 4.672-11.616l-1.796-144.547c-.099-8.718-7.145-15.806-15.911-15.909zm-30.06 73.307c-8.222-8.222-8.222-21.551 0-29.773s21.552-8.222 29.773 0c8.222 8.222 8.222 21.551 0 29.773-8.221 8.221-21.551 8.222-29.773 0z" fill="#ff5d7d" fill-rule="evenodd"></path><g><path d="m504.359 7.679c-21.806-21.806-72.341 5.903-110.988 44.55-13.539 13.539-25.006 27.683-33.711 41.274l-110.041-1.367c-7.674-.625-15.149 2.13-20.599 7.578l-78.86 78.849c-3.906 3.904-3.906 10.236-.001 14.142 3.904 3.906 10.237 3.906 14.142.001l78.86-78.848c1.311-1.311 3.131-1.962 4.974-1.775.285.027.57.044.856.047l99.753 1.24c-2.95 6.525-5.085 12.753-6.312 18.528-5.26 1.321-10.239 4.034-14.344 8.139-12.107 12.107-12.107 31.808 0 43.915 6.054 6.054 14.006 9.08 21.957 9.08 7.952 0 15.904-3.026 21.958-9.08 12.107-12.107 12.107-31.808 0-43.915-2.804-2.804-6.015-4.958-9.445-6.463 1.561-5.964 4.428-12.726 8.381-19.928l21.222.264c3.287.039 5.992 2.74 6.029 6.034l1.797 144.54c.02 1.711-.6 3.283-1.743 4.428l-221.37 221.337c-2.404 2.4-6.313 2.402-8.718 0l-146.363-146.346c-2.402-2.401-2.402-6.311-.001-8.712l78.864-78.853c3.906-3.904 3.906-10.236.001-14.142-3.903-3.905-10.236-3.905-14.142-.001l-78.865 78.854c-10.2 10.2-10.2 26.797.001 36.997l146.364 146.343c5.101 5.1 11.8 7.649 18.499 7.649 6.7 0 13.399-2.55 18.5-7.649l221.37-221.336c4.913-4.911 7.684-11.766 7.601-18.812l-1.392-111.935c13.856-8.891 28.031-20.452 41.217-33.638 38.646-38.647 66.357-89.181 44.549-110.989zm-146.499 162.129c-4.309 4.312-11.321 4.311-15.63 0-4.31-4.309-4.31-11.32 0-15.63 2.154-2.155 4.984-3.232 7.815-3.232 2.83 0 5.66 1.077 7.814 3.232 4.311 4.309 4.311 11.321.001 15.63zm60.434-41.585-.106-8.519c-.158-14.059-11.729-25.631-25.786-25.795l-8.623-.107c6.775-9.164 14.811-18.507 23.734-27.431 18.067-18.068 37.514-32.387 54.757-40.318 15.226-7.006 25.007-7.171 27.946-4.231 6.475 6.475-3.381 41.534-44.549 82.703-8.838 8.838-18.115 16.86-27.373 23.698z"></path><path d="m165.566 275.792c-5.651 5.65-8.764 13.184-8.764 21.213 0 8.028 3.112 15.562 8.763 21.213l28.285 28.284c5.651 5.65 13.185 8.763 21.213 8.763 8.029 0 15.562-3.112 21.213-8.763s8.763-13.185 8.763-21.213c0-8.029-3.112-15.562-8.763-21.213l-28.285-28.285c-11.698-11.698-30.733-11.693-42.425.001zm59.473 49.497c0 2.687-1.032 5.198-2.905 7.071-1.872 1.873-4.383 2.904-7.069 2.904-2.688 0-5.198-1.032-7.071-2.905l-28.285-28.284c-1.873-1.873-2.905-4.384-2.905-7.07s1.032-5.197 2.904-7.07l.001-.001c1.949-1.949 4.51-2.924 7.07-2.924 2.562 0 5.122.975 7.071 2.924l28.285 28.285c1.871 1.873 2.904 4.384 2.904 7.07z"></path><path d="m280.047 303.255c.856 0 1.728-.111 2.594-.344 5.335-1.43 8.501-6.913 7.071-12.247l-25.882-96.593c-1.43-5.335-6.914-8.504-12.247-7.071-5.335 1.43-8.501 6.913-7.071 12.247l25.882 96.593c1.197 4.468 5.237 7.415 9.653 7.415z"></path><path d="m218.811 242.012c2.867 0 5.714-1.227 7.692-3.6 3.535-4.243 2.962-10.549-1.28-14.085-4.242-3.533-10.548-2.964-14.085 1.281l-.005.005c-3.535 4.243-2.96 10.546 1.283 14.082 1.87 1.557 4.138 2.317 6.395 2.317z"></path><path d="m315.398 267.898c2.867 0 5.714-1.227 7.692-3.6 3.535-4.243 2.962-10.549-1.281-14.085-4.239-3.533-10.547-2.963-14.084 1.281l-.005.005c-3.535 4.243-2.96 10.546 1.283 14.082 1.87 1.558 4.138 2.317 6.395 2.317z"></path><path d="m123.139 346.503 3.535-3.535 42.426 42.426-3.535 3.535c-3.905 3.905-3.905 10.237 0 14.143 1.953 1.952 4.512 2.929 7.071 2.929s5.118-.977 7.071-2.929l21.213-21.213c3.905-3.905 3.905-10.237 0-14.143-3.906-3.904-10.236-3.904-14.143 0l-3.535 3.535-49.497-49.497c-3.906-3.904-10.236-3.904-14.143 0l-10.606 10.606c-3.905 3.905-3.905 10.237 0 14.143 3.907 3.904 10.237 3.904 14.143 0z"></path><path d="m125.414 227.452c5.522 0 10-4.478 10-10s-4.478-10-10-10h-.008c-5.522 0-9.996 4.478-9.996 10s4.481 10 10.004 10z"></path></g></g></svg>